<!DOCTYPE svg PUBLIC "-//W3C//DTD SVG 20010904//EN" "http://www.w3.org/TR/2001/REC-SVG-20010904/DTD/svg10.dtd">
<svg version="1.0" xmlns="http://www.w3.org/2000/svg" width="277px" height="242px" viewBox="0 0 2770 2420" preserveAspectRatio="xMidYMid meet">
<g id="layer101" fill="#9abb44" stroke="none">
 <path d="M626 2405 c-8 -8 -52 -29 -98 -46 -199 -73 -343 -198 -438 -380 -79 -153 -84 -190 -85 -639 l0 -395 154 -3 154 -3 -6 -156 c-3 -86 -3 -191 0 -235 l6 -78 311 0 310 0 228 -227 228 -227 220 219 c121 121 223 228 226 237 5 16 31 18 321 20 l315 3 -1 223 -2 222 151 0 151 0 -3 438 -3 437 -28 70 c-106 265 -319 447 -589 505 -28 6 -322 10 -752 10 -447 0 -707 4 -711 10 -9 15 -42 12 -59 -5z m694 -487 l0 -342 -219 -221 c-242 -244 -268 -281 -297 -423 -19 -89 -14 -184 15 -268 l18 -54 -193 0 -192 0 -6 78 c-4 42 -5 151 -2 242 4 147 7 172 30 235 36 95 80 160 140 207 110 87 181 108 368 108 157 0 152 -3 146 96 l-3 49 -161 -2 c-152 -2 -167 -4 -244 -32 -207 -76 -345 -229 -395 -438 l-18 -73 -84 0 -84 0 3 328 c4 323 5 328 31 407 34 101 72 166 138 239 90 99 213 168 339 192 41 8 177 12 368 13 l302 1 0 -342z m870 313 c115 -41 182 -83 261 -162 61 -60 85 -93 117 -160 65 -136 64 -134 69 -496 l5 -333 -84 0 -84 0 -10 68 c-13 80 -73 208 -130 276 -133 160 -317 231 -574 224 l-105 -3 0 -70 0 -70 160 -5 c144 -5 166 -9 224 -33 138 -58 235 -166 275 -307 16 -55 28 -392 18 -485 l-4 -41 -247 -3 c-341 -3 -419 15 -517 121 -50 55 -82 120 -94 194 -6 33 -10 333 -10 687 l0 629 333 -4 c318 -4 335 -5 397 -27z m-835 -1411 c40 -89 90 -158 150 -207 53 -43 144 -93 170 -93 8 0 15 -2 15 -3 0 -7 -293 -297 -300 -297 -12 0 -388 386 -408 420 -23 39 -52 143 -52 187 0 42 35 168 55 201 10 15 88 99 174 187 l156 160 5 -245 c5 -245 5 -245 35 -310z"/>
 </g>

</svg>